<svg xmlns="http://www.w3.org/2000/svg" style="margin:auto;background:#f1f2f3;display:block;" width="280" height="250" preserveAspectRatio="xMidYMid">
  <style type="text/css">
    text {
      text-anchor: middle; font-size: 42px; opacity: 0;
    }
  </style>
  <g style="transform-origin:140px 125px;transform:scale(1)">
  <g transform="translate(140,125)">
    <g transform="translate(0,0)"><g class="path" style="opacity: 1; transform-origin: -47.015px 8.37875px; animation: 1s linear -0.495s infinite normal forwards running blink-8de1b4e5-c3c7-4f12-be3b-21cad8b6bd68;"><path d="M18.44-3.24L18.44-3.24L18.44-3.24Q18.25-1.76 16.80 0.29L16.80 0.29L16.80 0.29Q16.32 0.96 15.36 2.05L15.36 2.05L15.36 2.05Q15.20 2.03 14.88 2.01L14.88 2.01L14.88 2.01Q14.56 1.99 14.40 1.99L14.40 1.99L14.40 1.99Q13.78 1.99 13.35 2.09L13.35 2.09L13.35 2.09Q12.92 2.19 12.76 2.48L12.76 2.48L12.76 2.48Q12.76 1.37 13.43 0.10L13.43 0.10L13.43 0.10Q14.11-1.17 14.11-1.70L14.11-1.70L14.11-1.70Q14.11-1.95 14.05-2.19L14.05-2.19L14.05-2.19Q13.68-3.63 13.61-3.98L13.61-3.98L13.61-3.98Q13.54-4.33 13.19-5.54L13.19-5.54L13.19-5.54Q12.67-3.98 12.24-3.16L12.24-3.16L12.24-3.16Q11.50-1.76 10.40-0.94L10.40-0.94L10.40-0.94Q9.52-0.29 8.43 0.03L8.43 0.03L8.43 0.03Q7.34 0.35 6.21 0.35L6.21 0.35L6.21 0.35Q4.96 0.35 3.82 0L3.82 0L3.82 0Q2.69-0.35 1.87-0.94L1.87-0.94L1.87-0.94Q0.78-1.72 0.37-2.91L0.37-2.91L0.37-2.91Q0.04-3.88 0.04-5.54L0.04-5.54L0.04-5.54Q0.04-7.34 1.15-9.56L1.15-9.56L1.15-9.56Q2.34-11.94 4.18-13.45L4.18-13.45L4.18-13.45Q6.32-15.22 8.70-15.22L8.70-15.22L8.70-15.22Q10.87-15.22 12.55-14.19L12.55-14.19L12.55-14.19Q13.78-13.45 15.83-11.34L15.83-11.34L15.83-11.34Q16.67-10.46 16.88-10.01L16.88-10.01L16.88-10.01Q17.17-9.13 17.51-8.05L17.51-8.05L17.51-8.05Q17.86-6.97 18.21-5.97L18.21-5.97L18.21-5.97Q18.50-4.98 18.50-4.10L18.50-4.10L18.50-4.10Q18.50-3.71 18.44-3.24zM12.69-6.79L12.69-6.79L12.69-6.79Q11.77-8.37 10.86-8.96L10.86-8.96L10.86-8.96Q9.95-9.56 8.43-9.56L8.43-9.56L8.43-9.56Q6.83-9.56 6.03-9.04L6.03-9.04L6.03-9.04Q5.31-8.59 4.70-7.34L4.70-7.34L4.70-7.34Q4.45-6.87 4.45-6.28L4.45-6.28L4.45-6.28Q4.45-5.37 4.95-4.43L4.95-4.43L4.95-4.43Q5.46-3.49 6.21-3.08L6.21-3.08L6.21-3.08Q6.42-2.97 6.71-2.97L6.71-2.97L6.71-2.97Q7.92-2.97 9.72-4.04L9.72-4.04L9.72-4.04Q11.73-5.23 12.69-6.79" fill="#000000" stroke="none" stroke-width="none" transform="translate(-56.285003662109375,14.74875)" style="fill: rgb(0, 0, 0);"></path></g><g class="path" style="opacity: 1; transform-origin: -29.015px 8.90375px; animation: 1s linear -0.33s infinite normal forwards running blink-8de1b4e5-c3c7-4f12-be3b-21cad8b6bd68;"><path d="M33.33-5.07L33.33-5.07L33.33-5.07Q33.33-3.63 32.87-2.38L32.87-2.38L32.87-2.38Q32.30-0.78 31.21-0.27L31.21-0.27L31.21-0.27Q30.68 0 30.33 0L30.33 0L30.33 0Q29.76-0.10 29.14-0.19L29.14-0.19L29.14-0.19Q28.53-0.29 27.79-0.29L27.79-0.29L27.79-0.29Q26.70-1.97 25.06-4.39L25.06-4.39L25.06-4.39Q23.21-7.10 22.56-8.12L22.56-8.12L22.56-8.12Q21.43-9.91 21.25-10.60L21.25-10.60L21.25-10.60Q21.21-10.81 21.21-10.87L21.21-10.87L21.21-10.87Q21.21-11.30 21.68-11.49L21.68-11.49L21.68-11.49Q22.15-11.69 22.87-11.69L22.87-11.69L22.87-11.69Q23.58-11.69 24.36-11.57L24.36-11.57L24.36-11.57Q24.75-11.50 25.47-11.34L25.47-11.34L25.47-11.34Q26.60-9.52 27.34-8.45L27.34-8.45L27.34-8.45Q28.42-6.83 29.53-5.23L29.53-5.23L29.53-5.23Q29.96-4.92 30.45-4.60L30.45-4.60L30.45-4.60Q30.95-4.29 31.42-4.29L31.42-4.29L31.42-4.29Q31.83-4.29 32.27-4.46L32.27-4.46L32.27-4.46Q32.71-4.63 33.33-5.07" fill="#000000" stroke="none" stroke-width="none" transform="translate(-56.285003662109375,14.74875)" style="fill: rgb(0, 0, 0);"></path></g><g class="path" style="opacity: 1; transform-origin: 5.29px -3.95625px; animation: 1s linear -0.165s infinite normal forwards running blink-8de1b4e5-c3c7-4f12-be3b-21cad8b6bd68;"><path d="M88.37-5.56L88.37-5.56L88.37-5.56Q87.81-4.37 87.26-3.20L87.26-3.20L87.26-3.20Q86.30-1.64 84.62-0.96L84.62-0.96L84.62-0.96Q82.38-0.12 81.62 0.08L81.62 0.08L81.62 0.08Q80.31 0.43 78.65 0.43L78.65 0.43L78.65 0.43Q76.88 0.43 75.36-0.08L75.36-0.08L75.36-0.08Q73.83-0.59 72.74-1.50L72.74-1.50L72.74-1.50Q71.49-2.54 71.00-3.36L71.00-3.36L71.00-3.36Q70.40-4.35 70.40-5.68L70.40-5.68L70.40-5.68Q70.40-6.91 71.31-8.29L71.31-8.29L71.31-8.29Q71.72-8.90 72.74-10.05L72.74-10.05L63.27-10.05L63.27-10.05Q60.70-9.68 60.21-9.45L60.21-9.45L60.21-9.45Q58.63-8.76 58.63-6.73L58.63-6.73L58.63-6.73Q58.63-5.64 59.50-4.96L59.50-4.96L59.50-4.96Q60.38-4.29 61.42-4.29L61.42-4.29L61.42-4.29Q63.55-4.29 65.18-4.91L65.18-4.91L65.18-4.91Q66.81-5.54 68.39-6.91L68.39-6.91L68.39-6.91Q68.39-4.06 67.08-2.67L67.08-2.67L67.08-2.67Q66.04-1.54 63.27-0.70L63.27-0.70L63.27-0.70Q62.06-0.08 60.25-0.08L60.25-0.08L60.25-0.08Q58.55-0.08 57.20-0.66L57.20-0.66L57.20-0.66Q55.68-1.29 55.18-2.44L55.18-2.44L55.18-2.44Q54.67-3.59 54.67-4.74L54.67-4.74L54.67-4.74Q54.67-5.97 55.27-7.20L55.27-7.20L55.27-7.20Q55.72-8.14 56.79-9.52L56.79-9.52L56.79-9.52Q54.61-9.52 53.61-9.55L53.61-9.55L53.61-9.55Q52.60-9.58 51.66-9.68L51.66-9.68L51.66-5.41L51.66-5.41Q51.66-4.47 50.37-3.85L50.37-3.85L50.37-3.85Q49.08-3.22 48.73-2.99L48.73-2.99L48.75-9.68L48.75-9.68Q47.95-9.68 46.30-9.57L46.30-9.57L46.30-9.57Q44.65-9.45 42.73-9.34L42.73-9.34L42.73-9.34Q40.81-9.23 39.85-9.23L39.85-9.23L39.85-9.23Q39.25-8.84 38.91-8.08L38.91-8.08L38.91-8.08Q38.58-7.32 38.58-6.44L38.58-6.44L38.58-6.44Q38.58-5.82 38.76-5.32L38.76-5.32L38.76-5.32Q38.94-4.82 39.35-4.51L39.35-4.51L39.35-4.51Q39.58-4.20 40.03-4.07L40.03-4.07L40.03-4.07Q40.48-3.94 41.16-3.94L41.16-3.94L41.16-3.94Q42.41-3.94 44.21-4.39L44.21-4.39L44.21-4.39Q45.96-4.90 46.18-4.96L46.18-4.96L46.18-4.96Q45.10-2.44 43.64-1.05L43.64-1.05L43.64-1.05Q42.18 0.35 40.56 0.35L40.56 0.35L40.56 0.35Q38.10 0.35 36.34-2.21L36.34-2.21L36.34-2.21Q34.78-4.49 34.78-6.87L34.78-6.87L34.78-6.87Q34.78-9.41 35.85-10.71L35.85-10.71L35.85-10.71Q36.59-11.61 38.06-12.00L38.06-12.00L38.06-12.00Q39.83-12.47 39.85-12.49L39.85-12.49L48.75-12.69L48.75-16.88L45.71-16.88L45.71-16.88Q44.99-16.88 44.36-16.69L44.36-16.69L44.36-16.69Q44.05-16.61 43.05-16.22L43.05-16.22L43.05-16.22Q42.43-16.00 42.06-15.75L42.06-15.75L42.06-15.75Q42.02-15.71 40.56-14.56L40.56-14.56L40.56-14.56Q40.73-15.93 40.83-16.30L40.83-16.30L40.83-16.30Q41.10-17.31 41.73-17.94L41.73-17.94L41.73-17.94Q42.68-18.87 43.95-19.30L43.95-19.30L43.95-19.30Q44.71-19.44 44.95-19.48L44.95-19.48L44.95-19.48Q45.51-19.58 46.11-19.65L46.11-19.65L46.11-19.65Q46.72-19.71 47.17-19.71L47.17-19.71L47.17-19.71Q47.58-19.71 47.97-19.69L47.97-19.69L47.97-19.69Q48.36-19.67 48.75-19.65L48.75-19.65L48.75-23.95L48.73-33.49L48.73-33.49Q48.73-34.27 49.84-35.35L49.84-35.35L49.84-35.35Q50.96-36.42 51.50-36.42L51.50-36.42L51.50-36.42Q51.66-36.42 51.66-36.28L51.66-36.28L51.66-36.28Q51.66-35.19 51.99-34.19L51.99-34.19L51.99-34.19Q52.32-33.18 52.97-31.93L52.97-31.93L52.97-31.93Q53.34-31.19 53.50-30.72L53.50-30.72L53.50-30.72Q53.55-30.62 53.77-30.31L53.77-30.31L53.77-30.31Q54.53-29.37 56.56-28.98L56.56-28.98L56.56-28.98Q57.24-28.85 58.47-28.77L58.47-28.77L58.47-28.77Q58.67-29.78 58.93-30.84L58.93-30.84L58.93-30.84Q59.19-31.91 60.07-33.12L60.07-33.12L60.07-33.12Q60.99-34.54 61.91-35.97L61.91-35.97L61.91-35.97Q62.86-37.10 64.70-37.55L64.70-37.55L64.70-37.55Q65.81-37.84 66.67-37.84L66.67-37.84L66.67-37.84Q68.00-37.84 69.34-37.04L69.34-37.04L69.34-37.04Q69.85-36.75 70.34-35.97L70.34-35.97L70.34-35.97Q70.94-35.03 70.94-34.06L70.94-34.06L70.94-34.06Q70.94-33.45 70.63-32.79L70.63-32.79L70.63-32.79Q69.83-31.05 69.52-30.60L69.52-30.60L69.52-30.60Q68.91-29.70 67.63-28.77L67.63-28.77L67.63-28.77Q65.75-27.36 64.95-26.82L64.95-26.82L64.95-26.82Q63.59-25.92 61.93-25.92L61.93-25.92L61.93-25.92Q62.45-25.06 62.71-24.53L62.71-24.53L62.71-24.53Q63.53-22.89 63.68-21.82L63.68-21.82L63.68-21.82Q63.76-21.27 63.77-21.14L63.77-21.14L63.77-21.14Q63.78-21.02 63.78-20.65L63.78-20.65L63.78-20.65Q63.78-20.47 63.76-20.23L63.76-20.23L63.76-20.23Q63.74-20.00 63.68-19.75L63.68-19.75L63.68-19.75Q63.51-18.93 63.37-18.58L63.37-18.58L63.37-18.58Q63.14-18.03 62.69-17.60L62.69-17.60L62.69-17.60Q62.18-17.17 60.31-16.69L60.31-16.69L60.31-16.69Q58.45-16.22 57.61-16.22L57.61-16.22L57.61-16.22Q57.01-16.22 54.82-16.43L54.82-16.43L54.82-16.43Q52.62-16.63 51.66-16.63L51.66-16.63L51.66-13.04L51.66-13.04Q58.24-13.04 65.03-13.00L65.03-13.00L65.03-13.00Q71.82-12.96 74.81-12.92L74.81-12.92L74.81-12.92Q77.81-12.88 80.27-12.86L80.27-12.86L81.74-12.86L81.74-12.86Q81.64-12.69 81.39-12.19L81.39-12.19L81.39-12.19Q81.13-11.69 80.93-11.53L80.93-11.53L80.93-11.53Q80.74-11.36 78.44-10.58L78.44-10.58L78.44-10.58Q76.56-9.93 75.96-8.82L75.96-8.82L75.96-8.82Q75.63-8.24 75.49-7.80L75.49-7.80L75.49-7.80Q75.35-7.36 75.35-6.83L75.35-6.83L75.35-6.83Q75.43-6.21 75.76-5.74L75.76-5.74L75.76-5.74Q75.86-5.60 76.54-4.80L76.54-4.80L76.54-4.80Q77.01-4.29 77.23-4.08L77.23-4.08L77.23-4.08Q77.60-3.77 78.07-3.55L78.07-3.55L78.07-3.55Q78.54-3.32 79.01-3.23L79.01-3.23L79.01-3.23Q79.47-3.14 79.98-3.14L79.98-3.14L79.98-3.14Q80.21-3.14 80.44-3.14L80.44-3.14L80.44-3.14Q80.68-3.14 80.94-3.16L80.94-3.16L80.94-3.16Q81.50-3.16 82.20-3.32L82.20-3.32L82.20-3.32Q82.89-3.49 83.14-3.53L83.14-3.53L83.14-3.53Q83.38-3.57 83.73-3.64L83.73-3.64L83.73-3.64Q84.08-3.71 85.64-4.29L85.64-4.29L85.64-4.29Q86.75-4.72 86.87-4.76L86.87-4.76L86.87-4.76Q87.40-4.98 88.37-5.56zM67.80-34.64L67.80-34.64L67.80-34.64Q67.35-35.40 66.61-35.40L66.61-35.40L66.61-35.40Q65.91-35.40 64.62-34.66L64.62-34.66L64.62-34.66Q63.08-33.80 62.65-32.89L62.65-32.89L62.65-32.89Q62.04-31.01 61.20-28.83L61.20-28.83L61.20-28.83Q63.57-29.59 65.97-30.37L65.97-30.37L65.97-30.37Q68.41-31.38 68.41-32.85L68.41-32.85L68.41-32.85Q68.41-33.63 67.80-34.64zM61.20-21.82L61.20-21.82L61.20-21.82Q61.20-22.70 60.70-23.85L60.70-23.85L60.70-23.85Q60.21-25.00 59.39-25.92L59.39-25.92L51.66-27.05L51.66-19.30L51.66-19.30Q52.48-19.17 53.76-19.07L53.76-19.07L53.76-19.07Q55.04-18.97 56.25-18.97L56.25-18.97L56.25-18.97Q57.34-18.97 58.09-19.04L58.09-19.04L58.09-19.04Q58.84-19.11 59.39-19.30L59.39-19.30L59.39-19.30Q60.21-19.54 60.54-19.85L60.54-19.85L60.54-19.85Q61.20-20.47 61.20-21.82" fill="#000000" stroke="none" stroke-width="none" transform="translate(-56.285003662109375,14.74875)" style="fill: rgb(0, 0, 0);"></path></g><g class="path" style="opacity: 1; transform-origin: 45.22px 7.89875px; animation: 1s linear 0s infinite normal forwards running blink-8de1b4e5-c3c7-4f12-be3b-21cad8b6bd68;"><path d="M112.61-3.69L112.61-3.69L111.87-2.40L111.87-2.40Q111.13-1.03 110.48-0.29L110.48-0.29L110.48-0.29Q109.47 0.84 108.42 0.96L108.42 0.96L108.42 0.96Q108.26 0.98 107.97 0.98L107.97 0.98L107.97 0.98Q106.80 0.98 106.19 0.10L106.19 0.10L106.19 0.10Q105.92-0.29 105.19-2.23L105.19-2.23L105.19-2.23Q104.47-4.16 103.54-5.54L103.54-5.54L103.54-5.54Q103.11-3.96 102.60-3.04L102.60-3.04L102.60-3.04Q101.92-1.83 100.75-0.94L100.75-0.94L100.75-0.94Q99.87-0.29 98.79 0.03L98.79 0.03L98.79 0.03Q97.70 0.35 96.57 0.35L96.57 0.35L96.57 0.35Q95.32 0.35 94.18 0L94.18 0L94.18 0Q93.04-0.35 92.22-0.94L92.22-0.94L92.22-0.94Q91.14-1.72 90.73-2.91L90.73-2.91L90.73-2.91Q90.40-3.88 90.40-5.54L90.40-5.54L90.40-5.54Q90.40-7.08 92.53-9.33L92.53-9.33L92.53-9.33Q94.54-11.46 97.25-13.02L97.25-13.02L97.25-13.02Q100.12-14.68 102.03-14.68L102.03-14.68L102.03-14.68Q102.46-14.68 102.64-14.64L102.64-14.64L102.64-14.64Q103.46-13.54 103.56-13.39L103.56-13.39L103.56-13.39Q103.91-12.86 104.61-11.63L104.61-11.63L104.61-11.63Q105.84-9.50 107.36-6.91L107.36-6.91L107.36-6.91Q109.18-3.83 109.61-3.24L109.61-3.24L109.61-3.24Q109.76-3.12 110.09-3.12L110.09-3.12L110.09-3.12Q110.25-3.12 110.49-3.16L110.49-3.16L110.49-3.16Q110.72-3.20 110.95-3.24L110.95-3.24L110.95-3.24Q111.42-3.34 112.08-3.53L112.08-3.53L112.08-3.53Q112.28-3.59 112.61-3.69zM103.05-6.21L103.05-6.21L103.05-6.21Q102.03-7.98 101.23-8.67L101.23-8.67L101.23-8.67Q100.22-9.56 98.79-9.56L98.79-9.56L98.79-9.56Q97.19-9.56 96.39-9.04L96.39-9.04L96.39-9.04Q95.67-8.59 95.05-7.34L95.05-7.34L95.05-7.34Q94.81-6.87 94.81-6.28L94.81-6.28L94.81-6.28Q94.81-5.37 95.31-4.43L95.31-4.43L95.31-4.43Q95.81-3.49 96.57-3.08L96.57-3.08L96.57-3.08Q96.82-2.95 97.27-2.95L97.27-2.95L97.27-2.95Q98.56-2.95 100.22-3.79L100.22-3.79L100.22-3.79Q102.15-4.78 103.05-6.21" fill="#000000" stroke="none" stroke-width="none" transform="translate(-56.285003662109375,14.74875)" style="fill: rgb(0, 0, 0);"></path></g></g>
  </g>
  </g>
  </svg>
